<mxfile host="app.diagrams.net" modified="2024-05-18T19:20:48.286Z" agent="Mozilla/5.0 (X11; Linux x86_64) AppleWebKit/537.36 (KHTML, like Gecko) Chrome/119.0.0.0 Safari/537.36" etag="nxZqFt_GFA1CpqMF5JMr" version="24.4.4" type="google">
  <diagram name="Страница — 1" id="L74SnRRmwq9o9S75lbGC">
    <mxGraphModel grid="1" page="1" gridSize="10" guides="1" tooltips="1" connect="1" arrows="1" fold="1" pageScale="1" pageWidth="827" pageHeight="1169" math="0" shadow="0">
      <root>
        <mxCell id="0" />
        <mxCell id="1" parent="0" />
        <mxCell id="QaenVO4siS9VH7mCYYPl-3" value="" style="shape=mxgraph.cisco.routers.wireless_router;sketch=0;html=1;pointerEvents=1;dashed=0;fillColor=#036897;strokeColor=#ffffff;strokeWidth=2;verticalLabelPosition=bottom;verticalAlign=top;align=center;outlineConnect=0;" vertex="1" parent="1">
          <mxGeometry x="-60" y="1000" width="50" height="40" as="geometry" />
        </mxCell>
        <mxCell id="QaenVO4siS9VH7mCYYPl-4" value="" style="shape=mxgraph.cisco.switches.workgroup_switch;sketch=0;html=1;pointerEvents=1;dashed=0;fillColor=#036897;strokeColor=#ffffff;strokeWidth=2;verticalLabelPosition=bottom;verticalAlign=top;align=center;outlineConnect=0;" vertex="1" parent="1">
          <mxGeometry x="20" y="820" width="60" height="30" as="geometry" />
        </mxCell>
        <mxCell id="QaenVO4siS9VH7mCYYPl-14" value="" style="shape=mxgraph.cisco.routers.router;sketch=0;html=1;pointerEvents=1;dashed=0;fillColor=#036897;strokeColor=#ffffff;strokeWidth=2;verticalLabelPosition=bottom;verticalAlign=top;align=center;outlineConnect=0;" vertex="1" parent="1">
          <mxGeometry x="340" y="320" width="50" height="30" as="geometry" />
        </mxCell>
        <mxCell id="QaenVO4siS9VH7mCYYPl-16" value="" style="shape=mxgraph.cisco.switches.workgroup_switch;sketch=0;html=1;pointerEvents=1;dashed=0;fillColor=#036897;strokeColor=#ffffff;strokeWidth=2;verticalLabelPosition=bottom;verticalAlign=top;align=center;outlineConnect=0;" vertex="1" parent="1">
          <mxGeometry x="180" y="820" width="60" height="30" as="geometry" />
        </mxCell>
        <mxCell id="QaenVO4siS9VH7mCYYPl-17" value="" style="shape=mxgraph.cisco.switches.workgroup_switch;sketch=0;html=1;pointerEvents=1;dashed=0;fillColor=#036897;strokeColor=#ffffff;strokeWidth=2;verticalLabelPosition=bottom;verticalAlign=top;align=center;outlineConnect=0;" vertex="1" parent="1">
          <mxGeometry x="340" y="820" width="60" height="30" as="geometry" />
        </mxCell>
        <mxCell id="QaenVO4siS9VH7mCYYPl-18" value="" style="shape=mxgraph.cisco.switches.workgroup_switch;sketch=0;html=1;pointerEvents=1;dashed=0;fillColor=#036897;strokeColor=#ffffff;strokeWidth=2;verticalLabelPosition=bottom;verticalAlign=top;align=center;outlineConnect=0;" vertex="1" parent="1">
          <mxGeometry x="500" y="820" width="60" height="30" as="geometry" />
        </mxCell>
        <mxCell id="QaenVO4siS9VH7mCYYPl-19" value="" style="shape=mxgraph.cisco.switches.workgroup_switch;sketch=0;html=1;pointerEvents=1;dashed=0;fillColor=#036897;strokeColor=#ffffff;strokeWidth=2;verticalLabelPosition=bottom;verticalAlign=top;align=center;outlineConnect=0;" vertex="1" parent="1">
          <mxGeometry x="670" y="820" width="60" height="30" as="geometry" />
        </mxCell>
        <mxCell id="QaenVO4siS9VH7mCYYPl-20" value="" style="shape=mxgraph.cisco.routers.wireless_router;sketch=0;html=1;pointerEvents=1;dashed=0;fillColor=#036897;strokeColor=#ffffff;strokeWidth=2;verticalLabelPosition=bottom;verticalAlign=top;align=center;outlineConnect=0;" vertex="1" parent="1">
          <mxGeometry x="790" y="997" width="50" height="40" as="geometry" />
        </mxCell>
        <mxCell id="QaenVO4siS9VH7mCYYPl-21" value="" style="shape=mxgraph.cisco.routers.wireless_router;sketch=0;html=1;pointerEvents=1;dashed=0;fillColor=#036897;strokeColor=#ffffff;strokeWidth=2;verticalLabelPosition=bottom;verticalAlign=top;align=center;outlineConnect=0;" vertex="1" parent="1">
          <mxGeometry x="430" y="957" width="50" height="40" as="geometry" />
        </mxCell>
        <mxCell id="QaenVO4siS9VH7mCYYPl-38" style="edgeStyle=orthogonalEdgeStyle;rounded=0;orthogonalLoop=1;jettySize=auto;html=1;exitX=0.5;exitY=1;exitDx=0;exitDy=0;exitPerimeter=0;" edge="1" parent="1" source="QaenVO4siS9VH7mCYYPl-21" target="QaenVO4siS9VH7mCYYPl-21">
          <mxGeometry relative="1" as="geometry" />
        </mxCell>
        <mxCell id="QaenVO4siS9VH7mCYYPl-41" value="" style="endArrow=none;html=1;rounded=0;entryX=0.5;entryY=1;entryDx=0;entryDy=0;entryPerimeter=0;" edge="1" parent="1" source="QaenVO4siS9VH7mCYYPl-4" target="hCA_CuVUp_1DTXwcT2jg-3">
          <mxGeometry width="50" height="50" relative="1" as="geometry">
            <mxPoint x="-10" y="1008.7406855439642" as="sourcePoint" />
            <mxPoint x="5" y="960" as="targetPoint" />
          </mxGeometry>
        </mxCell>
        <mxCell id="QaenVO4siS9VH7mCYYPl-42" value="" style="endArrow=none;html=1;rounded=0;" edge="1" parent="1" source="QaenVO4siS9VH7mCYYPl-4" target="hCA_CuVUp_1DTXwcT2jg-2">
          <mxGeometry width="50" height="50" relative="1" as="geometry">
            <mxPoint x="-10" y="1015" as="sourcePoint" />
            <mxPoint x="-79.25" y="980" as="targetPoint" />
          </mxGeometry>
        </mxCell>
        <mxCell id="QaenVO4siS9VH7mCYYPl-43" value="" style="endArrow=none;html=1;rounded=0;" edge="1" parent="1" source="QaenVO4siS9VH7mCYYPl-3" target="QaenVO4siS9VH7mCYYPl-4">
          <mxGeometry width="50" height="50" relative="1" as="geometry">
            <mxPoint x="160" y="990" as="sourcePoint" />
            <mxPoint x="7.77173913043498" y="1000" as="targetPoint" />
          </mxGeometry>
        </mxCell>
        <mxCell id="QaenVO4siS9VH7mCYYPl-44" value="" style="endArrow=none;html=1;rounded=0;exitX=0.5;exitY=0.01;exitDx=0;exitDy=0;exitPerimeter=0;" edge="1" parent="1" source="hCA_CuVUp_1DTXwcT2jg-4" target="QaenVO4siS9VH7mCYYPl-16">
          <mxGeometry width="50" height="50" relative="1" as="geometry">
            <mxPoint x="140" y="940" as="sourcePoint" />
            <mxPoint x="310" y="840" as="targetPoint" />
          </mxGeometry>
        </mxCell>
        <mxCell id="QaenVO4siS9VH7mCYYPl-45" value="" style="endArrow=none;html=1;rounded=0;entryX=0.5;entryY=0.98;entryDx=0;entryDy=0;entryPerimeter=0;" edge="1" parent="1" source="hCA_CuVUp_1DTXwcT2jg-5" target="QaenVO4siS9VH7mCYYPl-16">
          <mxGeometry width="50" height="50" relative="1" as="geometry">
            <mxPoint x="335" y="929.9999999999999" as="sourcePoint" />
            <mxPoint x="420" y="720" as="targetPoint" />
          </mxGeometry>
        </mxCell>
        <mxCell id="QaenVO4siS9VH7mCYYPl-46" value="" style="endArrow=none;html=1;rounded=0;exitX=0.5;exitY=0.01;exitDx=0;exitDy=0;exitPerimeter=0;" edge="1" parent="1" source="hCA_CuVUp_1DTXwcT2jg-6" target="QaenVO4siS9VH7mCYYPl-17">
          <mxGeometry width="50" height="50" relative="1" as="geometry">
            <mxPoint x="380" y="780" as="sourcePoint" />
            <mxPoint x="430" y="730" as="targetPoint" />
          </mxGeometry>
        </mxCell>
        <mxCell id="QaenVO4siS9VH7mCYYPl-47" value="" style="endArrow=none;html=1;rounded=0;entryX=0.5;entryY=0.98;entryDx=0;entryDy=0;entryPerimeter=0;" edge="1" parent="1" source="hCA_CuVUp_1DTXwcT2jg-7" target="QaenVO4siS9VH7mCYYPl-17">
          <mxGeometry width="50" height="50" relative="1" as="geometry">
            <mxPoint x="508.67088607594906" y="929.9999999999999" as="sourcePoint" />
            <mxPoint x="470" y="830" as="targetPoint" />
          </mxGeometry>
        </mxCell>
        <mxCell id="QaenVO4siS9VH7mCYYPl-48" value="" style="endArrow=none;html=1;rounded=0;exitX=0.5;exitY=0.01;exitDx=0;exitDy=0;exitPerimeter=0;entryX=0.5;entryY=0.98;entryDx=0;entryDy=0;entryPerimeter=0;" edge="1" parent="1" source="hCA_CuVUp_1DTXwcT2jg-8" target="QaenVO4siS9VH7mCYYPl-18">
          <mxGeometry width="50" height="50" relative="1" as="geometry">
            <mxPoint x="400" y="800" as="sourcePoint" />
            <mxPoint x="450" y="750" as="targetPoint" />
          </mxGeometry>
        </mxCell>
        <mxCell id="QaenVO4siS9VH7mCYYPl-49" value="" style="endArrow=none;html=1;rounded=0;exitX=0.5;exitY=0.01;exitDx=0;exitDy=0;exitPerimeter=0;entryX=0.87;entryY=0.74;entryDx=0;entryDy=0;entryPerimeter=0;" edge="1" parent="1" source="hCA_CuVUp_1DTXwcT2jg-9" target="QaenVO4siS9VH7mCYYPl-18">
          <mxGeometry width="50" height="50" relative="1" as="geometry">
            <mxPoint x="410" y="810" as="sourcePoint" />
            <mxPoint x="460" y="760" as="targetPoint" />
          </mxGeometry>
        </mxCell>
        <mxCell id="QaenVO4siS9VH7mCYYPl-50" value="" style="endArrow=none;html=1;rounded=0;" edge="1" parent="1" source="hCA_CuVUp_1DTXwcT2jg-10" target="QaenVO4siS9VH7mCYYPl-19">
          <mxGeometry width="50" height="50" relative="1" as="geometry">
            <mxPoint x="330" y="880" as="sourcePoint" />
            <mxPoint x="380" y="830" as="targetPoint" />
          </mxGeometry>
        </mxCell>
        <mxCell id="QaenVO4siS9VH7mCYYPl-51" value="" style="endArrow=none;html=1;rounded=0;" edge="1" parent="1" source="QaenVO4siS9VH7mCYYPl-19" target="hCA_CuVUp_1DTXwcT2jg-11">
          <mxGeometry width="50" height="50" relative="1" as="geometry">
            <mxPoint x="340" y="890" as="sourcePoint" />
            <mxPoint x="930" y="800" as="targetPoint" />
          </mxGeometry>
        </mxCell>
        <mxCell id="QaenVO4siS9VH7mCYYPl-52" value="" style="endArrow=none;html=1;rounded=0;" edge="1" parent="1" source="QaenVO4siS9VH7mCYYPl-20" target="QaenVO4siS9VH7mCYYPl-19">
          <mxGeometry width="50" height="50" relative="1" as="geometry">
            <mxPoint x="350" y="900" as="sourcePoint" />
            <mxPoint x="400" y="850" as="targetPoint" />
          </mxGeometry>
        </mxCell>
        <mxCell id="hCA_CuVUp_1DTXwcT2jg-2" value="" style="shape=mxgraph.cisco.computers_and_peripherals.macintosh;sketch=0;html=1;pointerEvents=1;dashed=0;fillColor=#036897;strokeColor=#ffffff;strokeWidth=2;verticalLabelPosition=bottom;verticalAlign=top;align=center;outlineConnect=0;" vertex="1" parent="1">
          <mxGeometry x="-210" y="943" width="64.5" height="37" as="geometry" />
        </mxCell>
        <mxCell id="hCA_CuVUp_1DTXwcT2jg-3" value="" style="shape=mxgraph.cisco.computers_and_peripherals.macintosh;sketch=0;html=1;pointerEvents=1;dashed=0;fillColor=#036897;strokeColor=#ffffff;strokeWidth=2;verticalLabelPosition=bottom;verticalAlign=top;align=center;outlineConnect=0;" vertex="1" parent="1">
          <mxGeometry x="-164.5" y="990" width="64.5" height="37" as="geometry" />
        </mxCell>
        <mxCell id="hCA_CuVUp_1DTXwcT2jg-4" value="" style="shape=mxgraph.cisco.computers_and_peripherals.macintosh;sketch=0;html=1;pointerEvents=1;dashed=0;fillColor=#036897;strokeColor=#ffffff;strokeWidth=2;verticalLabelPosition=bottom;verticalAlign=top;align=center;outlineConnect=0;" vertex="1" parent="1">
          <mxGeometry x="60" y="960" width="64.5" height="37" as="geometry" />
        </mxCell>
        <mxCell id="hCA_CuVUp_1DTXwcT2jg-5" value="" style="shape=mxgraph.cisco.computers_and_peripherals.macintosh;sketch=0;html=1;pointerEvents=1;dashed=0;fillColor=#036897;strokeColor=#ffffff;strokeWidth=2;verticalLabelPosition=bottom;verticalAlign=top;align=center;outlineConnect=0;" vertex="1" parent="1">
          <mxGeometry x="150" y="961.5" width="64.5" height="37" as="geometry" />
        </mxCell>
        <mxCell id="hCA_CuVUp_1DTXwcT2jg-6" value="" style="shape=mxgraph.cisco.computers_and_peripherals.macintosh;sketch=0;html=1;pointerEvents=1;dashed=0;fillColor=#036897;strokeColor=#ffffff;strokeWidth=2;verticalLabelPosition=bottom;verticalAlign=top;align=center;outlineConnect=0;" vertex="1" parent="1">
          <mxGeometry x="260" y="963" width="64.5" height="37" as="geometry" />
        </mxCell>
        <mxCell id="hCA_CuVUp_1DTXwcT2jg-7" value="" style="shape=mxgraph.cisco.computers_and_peripherals.macintosh;sketch=0;html=1;pointerEvents=1;dashed=0;fillColor=#036897;strokeColor=#ffffff;strokeWidth=2;verticalLabelPosition=bottom;verticalAlign=top;align=center;outlineConnect=0;" vertex="1" parent="1">
          <mxGeometry x="346" y="963" width="64.5" height="37" as="geometry" />
        </mxCell>
        <mxCell id="hCA_CuVUp_1DTXwcT2jg-8" value="" style="shape=mxgraph.cisco.computers_and_peripherals.macintosh;sketch=0;html=1;pointerEvents=1;dashed=0;fillColor=#036897;strokeColor=#ffffff;strokeWidth=2;verticalLabelPosition=bottom;verticalAlign=top;align=center;outlineConnect=0;" vertex="1" parent="1">
          <mxGeometry x="530" y="963" width="64.5" height="37" as="geometry" />
        </mxCell>
        <mxCell id="hCA_CuVUp_1DTXwcT2jg-9" value="" style="shape=mxgraph.cisco.computers_and_peripherals.macintosh;sketch=0;html=1;pointerEvents=1;dashed=0;fillColor=#036897;strokeColor=#ffffff;strokeWidth=2;verticalLabelPosition=bottom;verticalAlign=top;align=center;outlineConnect=0;" vertex="1" parent="1">
          <mxGeometry x="630" y="963" width="64.5" height="37" as="geometry" />
        </mxCell>
        <mxCell id="hCA_CuVUp_1DTXwcT2jg-10" value="" style="shape=mxgraph.cisco.computers_and_peripherals.macintosh;sketch=0;html=1;pointerEvents=1;dashed=0;fillColor=#036897;strokeColor=#ffffff;strokeWidth=2;verticalLabelPosition=bottom;verticalAlign=top;align=center;outlineConnect=0;" vertex="1" parent="1">
          <mxGeometry x="954.5" y="926" width="64.5" height="37" as="geometry" />
        </mxCell>
        <mxCell id="hCA_CuVUp_1DTXwcT2jg-11" value="" style="shape=mxgraph.cisco.computers_and_peripherals.macintosh;sketch=0;html=1;pointerEvents=1;dashed=0;fillColor=#036897;strokeColor=#ffffff;strokeWidth=2;verticalLabelPosition=bottom;verticalAlign=top;align=center;outlineConnect=0;" vertex="1" parent="1">
          <mxGeometry x="890" y="981.5" width="64.5" height="37" as="geometry" />
        </mxCell>
        <mxCell id="SH7mHOmY0YoXLgwf_8YF-3" value="" style="endArrow=none;html=1;rounded=0;" edge="1" parent="1" source="QaenVO4siS9VH7mCYYPl-21" target="QaenVO4siS9VH7mCYYPl-17">
          <mxGeometry width="50" height="50" relative="1" as="geometry">
            <mxPoint x="522" y="943" as="sourcePoint" />
            <mxPoint x="490" y="849" as="targetPoint" />
          </mxGeometry>
        </mxCell>
        <mxCell id="SH7mHOmY0YoXLgwf_8YF-6" value="" style="shape=mxgraph.cisco.switches.workgroup_switch;sketch=0;html=1;pointerEvents=1;dashed=0;fillColor=#036897;strokeColor=#ffffff;strokeWidth=2;verticalLabelPosition=bottom;verticalAlign=top;align=center;outlineConnect=0;" vertex="1" parent="1">
          <mxGeometry y="586" width="60" height="30" as="geometry" />
        </mxCell>
        <mxCell id="SH7mHOmY0YoXLgwf_8YF-10" value="" style="shape=mxgraph.cisco.servers.file_server;sketch=0;html=1;pointerEvents=1;dashed=0;fillColor=#036897;strokeColor=#ffffff;strokeWidth=2;verticalLabelPosition=bottom;verticalAlign=top;align=center;outlineConnect=0;" vertex="1" parent="1">
          <mxGeometry x="-107.5" y="479" width="43" height="58" as="geometry" />
        </mxCell>
        <mxCell id="SH7mHOmY0YoXLgwf_8YF-11" value="" style="shape=mxgraph.cisco.servers.file_server;sketch=0;html=1;pointerEvents=1;dashed=0;fillColor=#036897;strokeColor=#ffffff;strokeWidth=2;verticalLabelPosition=bottom;verticalAlign=top;align=center;outlineConnect=0;" vertex="1" parent="1">
          <mxGeometry x="15.5" y="459" width="43" height="58" as="geometry" />
        </mxCell>
        <mxCell id="SH7mHOmY0YoXLgwf_8YF-12" value="" style="shape=mxgraph.cisco.servers.file_server;sketch=0;html=1;pointerEvents=1;dashed=0;fillColor=#036897;strokeColor=#ffffff;strokeWidth=2;verticalLabelPosition=bottom;verticalAlign=top;align=center;outlineConnect=0;" vertex="1" parent="1">
          <mxGeometry x="-174.5" y="551" width="43" height="58" as="geometry" />
        </mxCell>
        <mxCell id="SH7mHOmY0YoXLgwf_8YF-13" value="" style="endArrow=none;html=1;rounded=0;" edge="1" parent="1" source="SH7mHOmY0YoXLgwf_8YF-6" target="SH7mHOmY0YoXLgwf_8YF-10">
          <mxGeometry width="50" height="50" relative="1" as="geometry">
            <mxPoint x="-97" y="624" as="sourcePoint" />
            <mxPoint x="-47" y="574" as="targetPoint" />
          </mxGeometry>
        </mxCell>
        <mxCell id="SH7mHOmY0YoXLgwf_8YF-14" value="" style="endArrow=none;html=1;rounded=0;" edge="1" parent="1" source="SH7mHOmY0YoXLgwf_8YF-6" target="SH7mHOmY0YoXLgwf_8YF-11">
          <mxGeometry width="50" height="50" relative="1" as="geometry">
            <mxPoint x="-127" y="614" as="sourcePoint" />
            <mxPoint x="-77" y="564" as="targetPoint" />
          </mxGeometry>
        </mxCell>
        <mxCell id="SH7mHOmY0YoXLgwf_8YF-15" value="" style="endArrow=none;html=1;rounded=0;" edge="1" parent="1" source="SH7mHOmY0YoXLgwf_8YF-6" target="SH7mHOmY0YoXLgwf_8YF-12">
          <mxGeometry width="50" height="50" relative="1" as="geometry">
            <mxPoint x="-117" y="624" as="sourcePoint" />
            <mxPoint x="-67" y="574" as="targetPoint" />
          </mxGeometry>
        </mxCell>
        <mxCell id="SH7mHOmY0YoXLgwf_8YF-17" value="" style="shape=mxgraph.cisco.switches.workgroup_switch;sketch=0;html=1;pointerEvents=1;dashed=0;fillColor=#036897;strokeColor=#ffffff;strokeWidth=2;verticalLabelPosition=bottom;verticalAlign=top;align=center;outlineConnect=0;" vertex="1" parent="1">
          <mxGeometry x="336" y="560" width="60" height="30" as="geometry" />
        </mxCell>
        <mxCell id="mweBj8knnKhivHX_sm4Q-1" value="" style="shape=mxgraph.cisco.controllers_and_modules.firewall_service_module_(fwsm);sketch=0;html=1;pointerEvents=1;dashed=0;fillColor=#036897;strokeColor=#ffffff;strokeWidth=2;verticalLabelPosition=bottom;verticalAlign=top;align=center;outlineConnect=0;" vertex="1" parent="1">
          <mxGeometry x="340.5" y="428" width="50.5" height="72" as="geometry" />
        </mxCell>
        <mxCell id="mweBj8knnKhivHX_sm4Q-3" value="&lt;a style=&quot;box-sizing: border-box; transition: all 0.1s ease-in-out 0s; text-decoration-line: none; outline: 0px; text-align: left; white-space: normal;&quot; rel=&quot;noopener&quot; target=&quot;_blank&quot; href=&quot;https://encyclopedia.kaspersky.ru/glossary/active-directory/&quot;&gt;&lt;font face=&quot;Times New Roman&quot; style=&quot;font-size: 14px;&quot; color=&quot;#000000&quot;&gt;Active Directory&lt;/font&gt;&lt;/a&gt;" style="text;html=1;align=center;verticalAlign=middle;resizable=0;points=[];autosize=1;strokeColor=none;fillColor=none;" vertex="1" parent="1">
          <mxGeometry x="-214.5" y="609" width="120" height="30" as="geometry" />
        </mxCell>
        <mxCell id="mweBj8knnKhivHX_sm4Q-4" value="&lt;font face=&quot;Times New Roman&quot;&gt;DHCP&lt;/font&gt;" style="text;html=1;align=center;verticalAlign=middle;resizable=0;points=[];autosize=1;strokeColor=none;fillColor=none;" vertex="1" parent="1">
          <mxGeometry x="-160" y="493" width="60" height="30" as="geometry" />
        </mxCell>
        <mxCell id="mweBj8knnKhivHX_sm4Q-5" value="MySQL&lt;div&gt;Wed-server&lt;/div&gt;&lt;div&gt;&lt;br&gt;&lt;/div&gt;" style="text;html=1;align=center;verticalAlign=middle;resizable=0;points=[];autosize=1;strokeColor=none;fillColor=none;" vertex="1" parent="1">
          <mxGeometry x="-64.5" y="457" width="90" height="60" as="geometry" />
        </mxCell>
        <mxCell id="mweBj8knnKhivHX_sm4Q-6" value="" style="shape=mxgraph.cisco.switches.workgroup_switch;sketch=0;html=1;pointerEvents=1;dashed=0;fillColor=#036897;strokeColor=#ffffff;strokeWidth=2;verticalLabelPosition=bottom;verticalAlign=top;align=center;outlineConnect=0;" vertex="1" parent="1">
          <mxGeometry x="204.5" y="650" width="60" height="30" as="geometry" />
        </mxCell>
        <mxCell id="mweBj8knnKhivHX_sm4Q-7" value="" style="shape=mxgraph.cisco.switches.workgroup_switch;sketch=0;html=1;pointerEvents=1;dashed=0;fillColor=#036897;strokeColor=#ffffff;strokeWidth=2;verticalLabelPosition=bottom;verticalAlign=top;align=center;outlineConnect=0;" vertex="1" parent="1">
          <mxGeometry x="335.75" y="690" width="60" height="30" as="geometry" />
        </mxCell>
        <mxCell id="mweBj8knnKhivHX_sm4Q-8" value="" style="shape=mxgraph.cisco.switches.workgroup_switch;sketch=0;html=1;pointerEvents=1;dashed=0;fillColor=#036897;strokeColor=#ffffff;strokeWidth=2;verticalLabelPosition=bottom;verticalAlign=top;align=center;outlineConnect=0;" vertex="1" parent="1">
          <mxGeometry x="470" y="650" width="60" height="30" as="geometry" />
        </mxCell>
        <mxCell id="mweBj8knnKhivHX_sm4Q-23" value="ISP1" style="text;html=1;align=center;verticalAlign=middle;resizable=0;points=[];autosize=1;strokeColor=none;fillColor=none;" vertex="1" parent="1">
          <mxGeometry x="395" y="350" width="50" height="30" as="geometry" />
        </mxCell>
        <mxCell id="mweBj8knnKhivHX_sm4Q-24" value="Fw1" style="text;html=1;align=center;verticalAlign=middle;resizable=0;points=[];autosize=1;strokeColor=none;fillColor=none;" vertex="1" parent="1">
          <mxGeometry x="395" y="448" width="50" height="30" as="geometry" />
        </mxCell>
        <mxCell id="mweBj8knnKhivHX_sm4Q-25" value="Sw1" style="text;html=1;align=center;verticalAlign=middle;resizable=0;points=[];autosize=1;strokeColor=none;fillColor=none;" vertex="1" parent="1">
          <mxGeometry x="395" y="558" width="50" height="30" as="geometry" />
        </mxCell>
        <mxCell id="mweBj8knnKhivHX_sm4Q-27" value="Sw3" style="text;html=1;align=center;verticalAlign=middle;resizable=0;points=[];autosize=1;strokeColor=none;fillColor=none;" vertex="1" parent="1">
          <mxGeometry x="150" y="650" width="50" height="30" as="geometry" />
        </mxCell>
        <mxCell id="mweBj8knnKhivHX_sm4Q-28" value="Sw4" style="text;html=1;align=center;verticalAlign=middle;resizable=0;points=[];autosize=1;strokeColor=none;fillColor=none;" vertex="1" parent="1">
          <mxGeometry x="285.75" y="700" width="50" height="30" as="geometry" />
        </mxCell>
        <mxCell id="mweBj8knnKhivHX_sm4Q-29" value="Sw5" style="text;html=1;align=center;verticalAlign=middle;resizable=0;points=[];autosize=1;strokeColor=none;fillColor=none;" vertex="1" parent="1">
          <mxGeometry x="457" y="680" width="50" height="30" as="geometry" />
        </mxCell>
        <mxCell id="mweBj8knnKhivHX_sm4Q-30" value="Sw2" style="text;html=1;align=center;verticalAlign=middle;resizable=0;points=[];autosize=1;strokeColor=none;fillColor=none;" vertex="1" parent="1">
          <mxGeometry x="40" y="609" width="50" height="30" as="geometry" />
        </mxCell>
        <mxCell id="mweBj8knnKhivHX_sm4Q-31" value="Sw6" style="text;html=1;align=center;verticalAlign=middle;resizable=0;points=[];autosize=1;strokeColor=none;fillColor=none;" vertex="1" parent="1">
          <mxGeometry x="74.5" y="810" width="50" height="30" as="geometry" />
        </mxCell>
        <mxCell id="mweBj8knnKhivHX_sm4Q-32" value="Sw7" style="text;html=1;align=center;verticalAlign=middle;resizable=0;points=[];autosize=1;strokeColor=none;fillColor=none;" vertex="1" parent="1">
          <mxGeometry x="235.75" y="810" width="50" height="30" as="geometry" />
        </mxCell>
        <mxCell id="mweBj8knnKhivHX_sm4Q-33" value="Sw8" style="text;html=1;align=center;verticalAlign=middle;resizable=0;points=[];autosize=1;strokeColor=none;fillColor=none;" vertex="1" parent="1">
          <mxGeometry x="395" y="810" width="50" height="30" as="geometry" />
        </mxCell>
        <mxCell id="mweBj8knnKhivHX_sm4Q-34" value="Sw9" style="text;html=1;align=center;verticalAlign=middle;resizable=0;points=[];autosize=1;strokeColor=none;fillColor=none;" vertex="1" parent="1">
          <mxGeometry x="560" y="810" width="50" height="30" as="geometry" />
        </mxCell>
        <mxCell id="mweBj8knnKhivHX_sm4Q-35" value="Sw10" style="text;html=1;align=center;verticalAlign=middle;resizable=0;points=[];autosize=1;strokeColor=none;fillColor=none;" vertex="1" parent="1">
          <mxGeometry x="730" y="810" width="50" height="30" as="geometry" />
        </mxCell>
        <mxCell id="mweBj8knnKhivHX_sm4Q-36" value="SRV1" style="text;html=1;align=center;verticalAlign=middle;resizable=0;points=[];autosize=1;strokeColor=none;fillColor=none;" vertex="1" parent="1">
          <mxGeometry x="-220" y="569" width="50" height="30" as="geometry" />
        </mxCell>
        <mxCell id="mweBj8knnKhivHX_sm4Q-37" value="SRV2" style="text;html=1;align=center;verticalAlign=middle;resizable=0;points=[];autosize=1;strokeColor=none;fillColor=none;" vertex="1" parent="1">
          <mxGeometry x="-140" y="459" width="50" height="30" as="geometry" />
        </mxCell>
        <mxCell id="mweBj8knnKhivHX_sm4Q-38" value="SRV3" style="text;html=1;align=center;verticalAlign=middle;resizable=0;points=[];autosize=1;strokeColor=none;fillColor=none;" vertex="1" parent="1">
          <mxGeometry x="50" y="459" width="50" height="30" as="geometry" />
        </mxCell>
        <mxCell id="mweBj8knnKhivHX_sm4Q-39" value="&lt;font style=&quot;font-size: 14px;&quot;&gt;PC1&lt;/font&gt;" style="text;html=1;align=center;verticalAlign=middle;resizable=0;points=[];autosize=1;strokeColor=none;fillColor=none;" vertex="1" parent="1">
          <mxGeometry x="-214.5" y="981.5" width="50" height="30" as="geometry" />
        </mxCell>
        <mxCell id="mweBj8knnKhivHX_sm4Q-40" value="&lt;font style=&quot;font-size: 14px;&quot;&gt;PC9&lt;/font&gt;" style="text;html=1;align=center;verticalAlign=middle;resizable=0;points=[];autosize=1;strokeColor=none;fillColor=none;" vertex="1" parent="1">
          <mxGeometry x="-180" y="1027" width="50" height="30" as="geometry" />
        </mxCell>
        <mxCell id="mweBj8knnKhivHX_sm4Q-41" value="&lt;font style=&quot;font-size: 14px;&quot;&gt;WAP1&lt;/font&gt;" style="text;html=1;align=center;verticalAlign=middle;resizable=0;points=[];autosize=1;strokeColor=none;fillColor=none;" vertex="1" parent="1">
          <mxGeometry x="-65" y="1037" width="60" height="30" as="geometry" />
        </mxCell>
        <mxCell id="mweBj8knnKhivHX_sm4Q-42" value="&lt;font style=&quot;font-size: 14px;&quot;&gt;WAP2&lt;/font&gt;" style="text;html=1;align=center;verticalAlign=middle;resizable=0;points=[];autosize=1;strokeColor=none;fillColor=none;" vertex="1" parent="1">
          <mxGeometry x="425" y="1002" width="60" height="30" as="geometry" />
        </mxCell>
        <mxCell id="mweBj8knnKhivHX_sm4Q-43" value="&lt;font style=&quot;font-size: 14px;&quot;&gt;WAP3&lt;/font&gt;" style="text;html=1;align=center;verticalAlign=middle;resizable=0;points=[];autosize=1;strokeColor=none;fillColor=none;" vertex="1" parent="1">
          <mxGeometry x="785" y="1037" width="60" height="30" as="geometry" />
        </mxCell>
        <mxCell id="mweBj8knnKhivHX_sm4Q-44" value="&lt;font style=&quot;font-size: 14px;&quot;&gt;PC1&lt;/font&gt;" style="text;html=1;align=center;verticalAlign=middle;resizable=0;points=[];autosize=1;strokeColor=none;fillColor=none;" vertex="1" parent="1">
          <mxGeometry x="67.25" y="1002" width="50" height="30" as="geometry" />
        </mxCell>
        <mxCell id="mweBj8knnKhivHX_sm4Q-45" value="&lt;font style=&quot;font-size: 14px;&quot;&gt;PC1&lt;/font&gt;" style="text;html=1;align=center;verticalAlign=middle;resizable=0;points=[];autosize=1;strokeColor=none;fillColor=none;" vertex="1" parent="1">
          <mxGeometry x="264.5" y="1005" width="50" height="30" as="geometry" />
        </mxCell>
        <mxCell id="mweBj8knnKhivHX_sm4Q-46" value="&lt;font style=&quot;font-size: 14px;&quot;&gt;PC1&lt;/font&gt;" style="text;html=1;align=center;verticalAlign=middle;resizable=0;points=[];autosize=1;strokeColor=none;fillColor=none;" vertex="1" parent="1">
          <mxGeometry x="537.25" y="1002" width="50" height="30" as="geometry" />
        </mxCell>
        <mxCell id="mweBj8knnKhivHX_sm4Q-47" value="&lt;font style=&quot;font-size: 14px;&quot;&gt;PC1&lt;/font&gt;" style="text;html=1;align=center;verticalAlign=middle;resizable=0;points=[];autosize=1;strokeColor=none;fillColor=none;" vertex="1" parent="1">
          <mxGeometry x="897.25" y="1018.5" width="50" height="30" as="geometry" />
        </mxCell>
        <mxCell id="mweBj8knnKhivHX_sm4Q-48" value="&lt;font style=&quot;font-size: 14px;&quot;&gt;PC9&lt;/font&gt;" style="text;html=1;align=center;verticalAlign=middle;resizable=0;points=[];autosize=1;strokeColor=none;fillColor=none;" vertex="1" parent="1">
          <mxGeometry x="157.25" y="1005" width="50" height="30" as="geometry" />
        </mxCell>
        <mxCell id="mweBj8knnKhivHX_sm4Q-49" value="&lt;font style=&quot;font-size: 14px;&quot;&gt;PC9&lt;/font&gt;" style="text;html=1;align=center;verticalAlign=middle;resizable=0;points=[];autosize=1;strokeColor=none;fillColor=none;" vertex="1" parent="1">
          <mxGeometry x="353.25" y="1005" width="50" height="30" as="geometry" />
        </mxCell>
        <mxCell id="mweBj8knnKhivHX_sm4Q-50" value="&lt;font style=&quot;font-size: 14px;&quot;&gt;PC9&lt;/font&gt;" style="text;html=1;align=center;verticalAlign=middle;resizable=0;points=[];autosize=1;strokeColor=none;fillColor=none;" vertex="1" parent="1">
          <mxGeometry x="637.25" y="1002" width="50" height="30" as="geometry" />
        </mxCell>
        <mxCell id="mweBj8knnKhivHX_sm4Q-51" value="&lt;font style=&quot;font-size: 14px;&quot;&gt;PC9&lt;/font&gt;" style="text;html=1;align=center;verticalAlign=middle;resizable=0;points=[];autosize=1;strokeColor=none;fillColor=none;" vertex="1" parent="1">
          <mxGeometry x="969" y="967" width="50" height="30" as="geometry" />
        </mxCell>
        <mxCell id="bY_m--smZNV2kbxVmBjm-2" value="" style="endArrow=none;html=1;rounded=0;" edge="1" parent="1" source="mweBj8knnKhivHX_sm4Q-1" target="QaenVO4siS9VH7mCYYPl-14">
          <mxGeometry width="50" height="50" relative="1" as="geometry">
            <mxPoint x="240" y="410" as="sourcePoint" />
            <mxPoint x="290" y="360" as="targetPoint" />
          </mxGeometry>
        </mxCell>
        <mxCell id="bY_m--smZNV2kbxVmBjm-3" value="" style="endArrow=none;html=1;rounded=0;" edge="1" parent="1" source="SH7mHOmY0YoXLgwf_8YF-17" target="mweBj8knnKhivHX_sm4Q-1">
          <mxGeometry width="50" height="50" relative="1" as="geometry">
            <mxPoint x="425" y="438" as="sourcePoint" />
            <mxPoint x="425" y="390" as="targetPoint" />
          </mxGeometry>
        </mxCell>
        <mxCell id="bY_m--smZNV2kbxVmBjm-4" value="/29" style="ellipse;shape=cloud;whiteSpace=wrap;html=1;" vertex="1" parent="1">
          <mxGeometry x="305.75" y="370" width="120" height="30" as="geometry" />
        </mxCell>
        <mxCell id="bY_m--smZNV2kbxVmBjm-5" value="&lt;font style=&quot;font-size: 10px;&quot;&gt;.1&lt;/font&gt;" style="text;html=1;align=center;verticalAlign=middle;resizable=0;points=[];autosize=1;strokeColor=none;fillColor=none;" vertex="1" parent="1">
          <mxGeometry x="340.5" y="340" width="30" height="30" as="geometry" />
        </mxCell>
        <mxCell id="bY_m--smZNV2kbxVmBjm-6" value="&lt;span style=&quot;color: rgb(0, 0, 0); font-family: Helvetica; font-size: 10px; font-style: normal; font-variant-ligatures: normal; font-variant-caps: normal; font-weight: 400; letter-spacing: normal; orphans: 2; text-align: center; text-indent: 0px; text-transform: none; widows: 2; word-spacing: 0px; -webkit-text-stroke-width: 0px; white-space: nowrap; background-color: rgb(251, 251, 251); text-decoration-thickness: initial; text-decoration-style: initial; text-decoration-color: initial; display: inline !important; float: none;&quot;&gt;.2&lt;/span&gt;" style="text;whiteSpace=wrap;html=1;" vertex="1" parent="1">
          <mxGeometry x="348" y="400" width="15" height="20" as="geometry" />
        </mxCell>
        <mxCell id="bY_m--smZNV2kbxVmBjm-7" value="/29" style="ellipse;shape=cloud;whiteSpace=wrap;html=1;" vertex="1" parent="1">
          <mxGeometry x="306" y="514" width="120" height="30" as="geometry" />
        </mxCell>
        <mxCell id="bY_m--smZNV2kbxVmBjm-8" value="&lt;font style=&quot;font-size: 10px;&quot;&gt;.1&lt;/font&gt;" style="text;html=1;align=center;verticalAlign=middle;resizable=0;points=[];autosize=1;strokeColor=none;fillColor=none;" vertex="1" parent="1">
          <mxGeometry x="340" y="493" width="30" height="30" as="geometry" />
        </mxCell>
        <mxCell id="bY_m--smZNV2kbxVmBjm-9" value="&lt;span style=&quot;color: rgb(0, 0, 0); font-family: Helvetica; font-size: 10px; font-style: normal; font-variant-ligatures: normal; font-variant-caps: normal; font-weight: 400; letter-spacing: normal; orphans: 2; text-align: center; text-indent: 0px; text-transform: none; widows: 2; word-spacing: 0px; -webkit-text-stroke-width: 0px; white-space: nowrap; background-color: rgb(251, 251, 251); text-decoration-thickness: initial; text-decoration-style: initial; text-decoration-color: initial; display: inline !important; float: none;&quot;&gt;.2&lt;/span&gt;" style="text;whiteSpace=wrap;html=1;" vertex="1" parent="1">
          <mxGeometry x="348" y="538" width="15" height="20" as="geometry" />
        </mxCell>
        <mxCell id="bY_m--smZNV2kbxVmBjm-10" value="Multilink" style="text;html=1;align=center;verticalAlign=middle;resizable=0;points=[];autosize=1;strokeColor=none;fillColor=none;" vertex="1" parent="1">
          <mxGeometry x="244.5" y="370" width="70" height="30" as="geometry" />
        </mxCell>
        <mxCell id="bY_m--smZNV2kbxVmBjm-11" value="" style="endArrow=none;html=1;rounded=0;" edge="1" parent="1" source="SH7mHOmY0YoXLgwf_8YF-6" target="SH7mHOmY0YoXLgwf_8YF-17">
          <mxGeometry width="50" height="50" relative="1" as="geometry">
            <mxPoint x="20" y="580" as="sourcePoint" />
            <mxPoint x="70" y="530" as="targetPoint" />
          </mxGeometry>
        </mxCell>
        <mxCell id="bY_m--smZNV2kbxVmBjm-13" value="" style="endArrow=none;html=1;rounded=0;" edge="1" parent="1" source="mweBj8knnKhivHX_sm4Q-6" target="SH7mHOmY0YoXLgwf_8YF-17">
          <mxGeometry width="50" height="50" relative="1" as="geometry">
            <mxPoint x="-30" y="629" as="sourcePoint" />
            <mxPoint x="346" y="588" as="targetPoint" />
          </mxGeometry>
        </mxCell>
        <mxCell id="bY_m--smZNV2kbxVmBjm-14" value="" style="endArrow=none;html=1;rounded=0;" edge="1" parent="1" source="mweBj8knnKhivHX_sm4Q-7" target="SH7mHOmY0YoXLgwf_8YF-17">
          <mxGeometry width="50" height="50" relative="1" as="geometry">
            <mxPoint x="-20" y="639" as="sourcePoint" />
            <mxPoint x="356" y="598" as="targetPoint" />
          </mxGeometry>
        </mxCell>
        <mxCell id="bY_m--smZNV2kbxVmBjm-15" value="" style="endArrow=none;html=1;rounded=0;" edge="1" parent="1" source="mweBj8knnKhivHX_sm4Q-8" target="SH7mHOmY0YoXLgwf_8YF-17">
          <mxGeometry width="50" height="50" relative="1" as="geometry">
            <mxPoint x="410" y="620" as="sourcePoint" />
            <mxPoint x="366" y="608" as="targetPoint" />
          </mxGeometry>
        </mxCell>
        <mxCell id="bY_m--smZNV2kbxVmBjm-16" value="" style="endArrow=none;html=1;rounded=0;" edge="1" parent="1" source="mweBj8knnKhivHX_sm4Q-8" target="mweBj8knnKhivHX_sm4Q-7">
          <mxGeometry width="50" height="50" relative="1" as="geometry">
            <mxPoint x="465" y="667" as="sourcePoint" />
            <mxPoint x="375" y="607" as="targetPoint" />
          </mxGeometry>
        </mxCell>
        <mxCell id="bY_m--smZNV2kbxVmBjm-18" value="" style="endArrow=none;html=1;rounded=0;" edge="1" parent="1" source="mweBj8knnKhivHX_sm4Q-7" target="mweBj8knnKhivHX_sm4Q-6">
          <mxGeometry width="50" height="50" relative="1" as="geometry">
            <mxPoint x="370" y="700" as="sourcePoint" />
            <mxPoint x="376" y="600" as="targetPoint" />
          </mxGeometry>
        </mxCell>
        <mxCell id="bY_m--smZNV2kbxVmBjm-19" value="" style="endArrow=none;html=1;rounded=0;" edge="1" parent="1" source="QaenVO4siS9VH7mCYYPl-4" target="mweBj8knnKhivHX_sm4Q-6">
          <mxGeometry width="50" height="50" relative="1" as="geometry">
            <mxPoint x="90" y="750" as="sourcePoint" />
            <mxPoint x="140" y="740" as="targetPoint" />
          </mxGeometry>
        </mxCell>
        <mxCell id="bY_m--smZNV2kbxVmBjm-20" value="" style="endArrow=none;html=1;rounded=0;" edge="1" parent="1" source="mweBj8knnKhivHX_sm4Q-7" target="QaenVO4siS9VH7mCYYPl-17">
          <mxGeometry width="50" height="50" relative="1" as="geometry">
            <mxPoint x="386" y="710" as="sourcePoint" />
            <mxPoint x="386" y="610" as="targetPoint" />
          </mxGeometry>
        </mxCell>
        <mxCell id="bY_m--smZNV2kbxVmBjm-21" value="" style="endArrow=none;html=1;rounded=0;" edge="1" parent="1" source="QaenVO4siS9VH7mCYYPl-16" target="mweBj8knnKhivHX_sm4Q-7">
          <mxGeometry width="50" height="50" relative="1" as="geometry">
            <mxPoint x="396" y="720" as="sourcePoint" />
            <mxPoint x="396" y="620" as="targetPoint" />
          </mxGeometry>
        </mxCell>
        <mxCell id="bY_m--smZNV2kbxVmBjm-22" value="" style="endArrow=none;html=1;rounded=0;" edge="1" parent="1" source="QaenVO4siS9VH7mCYYPl-18" target="mweBj8knnKhivHX_sm4Q-8">
          <mxGeometry width="50" height="50" relative="1" as="geometry">
            <mxPoint x="406" y="730" as="sourcePoint" />
            <mxPoint x="406" y="630" as="targetPoint" />
          </mxGeometry>
        </mxCell>
        <mxCell id="bY_m--smZNV2kbxVmBjm-23" value="" style="endArrow=none;html=1;rounded=0;" edge="1" parent="1" source="QaenVO4siS9VH7mCYYPl-19" target="mweBj8knnKhivHX_sm4Q-8">
          <mxGeometry width="50" height="50" relative="1" as="geometry">
            <mxPoint x="416" y="740" as="sourcePoint" />
            <mxPoint x="416" y="640" as="targetPoint" />
          </mxGeometry>
        </mxCell>
        <mxCell id="bY_m--smZNV2kbxVmBjm-24" value="/29" style="ellipse;shape=cloud;whiteSpace=wrap;html=1;" vertex="1" parent="1">
          <mxGeometry x="-90" y="544" width="120" height="30" as="geometry" />
        </mxCell>
        <mxCell id="bY_m--smZNV2kbxVmBjm-25" value="/28" style="ellipse;shape=cloud;whiteSpace=wrap;html=1;" vertex="1" parent="1">
          <mxGeometry x="-104.5" y="880" width="120" height="30" as="geometry" />
        </mxCell>
        <mxCell id="bY_m--smZNV2kbxVmBjm-26" value="/28" style="ellipse;shape=cloud;whiteSpace=wrap;html=1;" vertex="1" parent="1">
          <mxGeometry x="115" y="890" width="120" height="30" as="geometry" />
        </mxCell>
        <mxCell id="bY_m--smZNV2kbxVmBjm-28" value="/28" style="ellipse;shape=cloud;whiteSpace=wrap;html=1;" vertex="1" parent="1">
          <mxGeometry x="276" y="896" width="120" height="30" as="geometry" />
        </mxCell>
        <mxCell id="bY_m--smZNV2kbxVmBjm-29" value="/28" style="ellipse;shape=cloud;whiteSpace=wrap;html=1;" vertex="1" parent="1">
          <mxGeometry x="517.25" y="880" width="120" height="30" as="geometry" />
        </mxCell>
        <mxCell id="bY_m--smZNV2kbxVmBjm-30" value="/28" style="ellipse;shape=cloud;whiteSpace=wrap;html=1;" vertex="1" parent="1">
          <mxGeometry x="770" y="880" width="120" height="30" as="geometry" />
        </mxCell>
        <mxCell id="bY_m--smZNV2kbxVmBjm-35" value="на 20 шт&amp;nbsp;" style="ellipse;shape=cloud;whiteSpace=wrap;html=1;" vertex="1" parent="1">
          <mxGeometry x="-94" y="1067" width="120" height="80" as="geometry" />
        </mxCell>
        <mxCell id="bY_m--smZNV2kbxVmBjm-36" value="на 20 шт&amp;nbsp;" style="ellipse;shape=cloud;whiteSpace=wrap;html=1;" vertex="1" parent="1">
          <mxGeometry x="400" y="1027" width="120" height="80" as="geometry" />
        </mxCell>
        <mxCell id="bY_m--smZNV2kbxVmBjm-37" value="на 20 шт&amp;nbsp;" style="ellipse;shape=cloud;whiteSpace=wrap;html=1;" vertex="1" parent="1">
          <mxGeometry x="755" y="1067" width="120" height="80" as="geometry" />
        </mxCell>
      </root>
    </mxGraphModel>
  </diagram>
</mxfile>
